<?xml version="1.0" standalone="no"?><!DOCTYPE svg PUBLIC "-//W3C//DTD SVG 1.1//EN" "http://www.w3.org/Graphics/SVG/1.1/DTD/svg11.dtd">
<svg t="1606039659077" class="icon" viewBox="0 0 1024 1024" version="1.1"
    xmlns="http://www.w3.org/2000/svg" p-id="1482"
    xmlns:xlink="http://www.w3.org/1999/xlink" width="200" height="200">
    <defs>
        <style type="text/css"></style>
    </defs>
    <path d="M0 512a512 512 0 1 0 1024 0A512 512 0 1 0 0 512z" fill="#9AF4EF" p-id="1483"></path>
    <path d="M20.182 654.266c166.642-6.584 692.232-32.92 995.516-50.856 5.352-29.676 8.302-60.19 8.302-91.41 0-29.922-2.712-59.196-7.638-87.71C747.138 433.632 250.024 481.21 0.392 527.46c1.304 43.886 8.112 86.366 19.79 126.806z" fill="#FFFFF4" p-id="1484"></path>
    <path d="M17.022 643.134c201.224 1.858 744.998 4.528 989.256 2.466a512.258 512.258 0 0 0 17.652-130.832C724.894 517.854 174.16 536.54 2.12 557.46c2.584 29.336 7.582 57.968 14.902 85.674z" fill="#FFFFF4" p-id="1485"></path>
    <path d="M301.588 298.194c0-22.45 18.2-40.648 40.648-40.648 3.388 0 6.628 0.536 9.774 1.318 10.606-11.454 25.646-18.738 42.488-18.738 32.07 0 58.068 25.998 58.068 58.068H301.588z m-43.6-142c0-18.884 15.308-34.192 34.192-34.192 2.85 0 5.576 0.45 8.222 1.108 8.922-9.636 21.572-15.762 35.74-15.762 26.976 0 48.846 21.87 48.846 48.846h-127zM857.02 393.006c0-14.042 11.384-25.426 25.426-25.426 2.12 0 4.146 0.336 6.114 0.824 6.634-7.164 16.042-11.72 26.578-11.72 20.06 0 36.324 16.262 36.324 36.324H857.02zM739.99 290.678c0-18.884 15.308-34.192 34.192-34.192 2.85 0 5.576 0.45 8.222 1.108 8.922-9.636 21.572-15.762 35.74-15.762 26.976 0 48.846 21.87 48.846 48.846h-127z" fill="#FFFFFF" p-id="1486"></path>
    <path d="M330.488 251.604c-4.888 0-9.508 0.962-13.936 2.358-14.026-20.162-37.292-33.418-63.714-33.418s-49.688 13.256-63.714 33.418c-4.428-1.396-9.048-2.358-13.936-2.358-25.732 0-46.59 20.858-46.59 46.59h248.48c0-25.73-20.86-46.59-46.59-46.59z m411.204 4.198c-3.66 0-7.118 0.72-10.432 1.766-10.498-15.092-27.916-25.016-47.694-25.016s-37.194 9.922-47.694 25.016c-3.314-1.046-6.772-1.766-10.432-1.766-19.26 0-34.874 15.614-34.874 34.874h186c0.002-19.26-15.612-34.874-34.874-34.874zM861.716 368.54c-2.568 0-4.994 0.506-7.318 1.238-7.366-10.588-19.584-17.55-33.46-17.55-13.876 0-26.094 6.962-33.46 17.55-2.326-0.734-4.752-1.238-7.318-1.238-13.512 0-24.466 10.954-24.466 24.466h130.49c-0.002-13.512-10.956-24.466-24.468-24.466zM564.484 148.404c0-24.904 20.188-45.092 45.092-45.092 3.758 0 7.352 0.594 10.842 1.462 11.766-12.706 28.448-20.786 47.132-20.786 35.576 0 64.416 28.84 64.416 64.416H564.484z" fill="#FFFFFF" p-id="1487"></path>
    <path d="M3.666 572c29.72 254.474 245.88 452 508.334 452 262.456 0 478.614-197.526 508.334-452H3.666z" fill="#B0EB81" p-id="1488"></path>
    <path d="M614.392 259.964l-24.984-31.746c-6.832-8.68-19.986-8.68-26.818 0l-24.984 31.746-32.974 258.566h142.736l-32.976-258.566z" fill="#C4B478" p-id="1489"></path>
    <path d="M566.374 228.218c-0.528-0.672-1.292-0.944-1.892-1.512-0.598 0.568-1.364 0.84-1.892 1.512l-24.984 31.746-32.974 258.566h119.702l-32.976-258.566-24.984-31.746z" fill="#BCA077" p-id="1490"></path>
    <path d="M649.23 552.404H502.77V450.532a2 2 0 0 1 2-2h142.46a2 2 0 0 1 2 2v101.872z" fill="#8C665B" p-id="1491"></path>
    <path d="M576.002 471.716c-15.88 0-28.754 12.874-28.754 28.754v51.936h57.506V500.47c0-15.882-12.874-28.754-28.752-28.754z" fill="#674447" p-id="1492"></path>
    <path d="M425.072 383.756l39.782 39.782c8.794 8.794 23.56 6.726 29.6-4.146L576 272.61l-146.782 81.546c-10.872 6.04-12.94 20.806-4.146 29.6z m301.856 0l-39.782 39.782c-8.794 8.794-23.56 6.726-29.6-4.146L576 272.61l146.782 81.546c10.872 6.04 12.94 20.806 4.146 29.6z m0-222.292l-39.782-39.782c-8.794-8.794-23.56-6.726-29.6 4.146L576 272.61l146.782-81.546c10.872-6.04 12.94-20.806 4.146-29.6z m-301.856 0l39.782-39.782c8.794-8.794 23.56-6.726 29.6 4.146L576 272.61l-146.782-81.546c-10.872-6.04-12.94-20.806-4.146-29.6z" fill="#8C665B" p-id="1493"></path>
    <path d="M552.966 272.61a23.034 23.034 0 1 0 46.068 0 23.034 23.034 0 1 0-46.068 0z" fill="#8C665B" p-id="1494"></path>
    <path d="M872.016 698.194a8.77 8.77 0 0 1-8.774-8.768v-94.438a8.77 8.77 0 0 1 8.774-8.768 8.77 8.77 0 0 1 8.774 8.768v94.438a8.77 8.77 0 0 1-8.774 8.768z" fill="#674447" p-id="1495"></path>
    <path d="M927.276 586.944c0 30.522-24.742 55.264-55.264 55.264s-55.264-24.742-55.264-55.264c0-30.522 24.742-124.342 55.264-124.342s55.264 93.822 55.264 124.342z" fill="#43AB5F" p-id="1496"></path>
    <path d="M872.014 462.602c-7.662 0-14.958 5.922-21.59 15.262h0.002c27.934 0 50.58 85.87 50.58 113.806 0 24.3-17.148 44.558-39.994 49.43a55.558 55.558 0 0 0 11.004 1.11c30.52 0 55.264-24.742 55.264-55.262-0.004-30.526-24.746-124.346-55.266-124.346z" fill="#71BE63" p-id="1497"></path>
    <path d="M182.156 629.906c-4.884 0-8.84-3.006-8.84-6.712v-72.286c0-3.706 3.956-6.712 8.84-6.712s8.84 3.006 8.84 6.712v72.286c0 3.706-3.956 6.712-8.84 6.712z" fill="#674447" p-id="1498"></path>
    <path d="M229.774 532.162c0 36.546-21.32 54.89-47.62 54.89s-47.62-18.344-47.62-54.89 29.17-179.068 47.62-179.068 47.62 142.522 47.62 179.068z" fill="#43AB5F" p-id="1499"></path>
    <path d="M182.154 353.094c-3.654 0-7.73 5.65-11.916 14.9 15.05 22.794 34.524 135.418 34.524 166.7 0 30.562-13.59 47.768-31.634 51.548a52.88 52.88 0 0 0 9.028 0.808c26.3 0 47.62-18.344 47.62-54.89s-29.172-179.066-47.622-179.066z" fill="#71BE63" p-id="1500"></path>
    <path d="M310.016 587.5a11.464 11.464 0 0 1-11.47-11.462v-123.46a11.464 11.464 0 0 1 11.47-11.462 11.464 11.464 0 0 1 11.47 11.462v123.46a11.462 11.462 0 0 1-11.47 11.462z" fill="#674447" p-id="1501"></path>
    <path d="M382.26 442.062c0 39.9-32.346 72.246-72.246 72.246s-72.246-32.346-72.246-72.246 32.346-162.556 72.246-162.556S382.26 402.16 382.26 442.062z" fill="#43AB5F" p-id="1502"></path>
    <path d="M310.014 279.506c-10.016 0-19.554 7.742-28.226 19.952h0.002c36.52 0 66.124 112.26 66.124 148.78 0 31.766-22.418 58.252-52.286 64.622 4.65 0.94 9.458 1.45 14.384 1.45 39.9 0 72.248-32.346 72.248-72.246 0-39.904-32.346-162.558-72.246-162.558zM24.584 668.88C90.844 874.886 283.968 1024 512 1024c221.622 0 410.312-140.83 481.576-337.862C772.228 675.308 696.162 496 512 496c-240.122 0-316.168 163.582-487.416 172.88z" fill="#71BE63" p-id="1503"></path>
    <path d="M993.576 686.138C772.228 675.308 696.162 496 512 496c-11.372 0-22.264 0.476-32.928 1.176C682.92 511.6 776.324 748.83 926.488 812.028c27.812-38.362 50.688-80.542 67.088-125.89z" fill="#94D75B" p-id="1504"></path>
    <path d="M50.594 733.244C133.16 905.146 308.548 1024 512 1024c135.58 0 258.672-52.882 350.258-138.92-323.742-18.244-412.266-238.874-811.664-151.836z" fill="#43AB5F" p-id="1505"></path>
    <path d="M503.246 777.472c26.266 11.244 52.252 22.994 78.776 34.476 112.34-94.436 241.208-167.76 165.134-219.448l-45.028-29.562c128.04 80.976-41.874 137.546-198.882 214.534z" fill="#C4B478" p-id="1506"></path>
    <path d="M110.268 828.598a513.826 513.826 0 0 0 167.28 138.23c2.076-91.284 59.268-153.918 129.476-225.626-34.86-10.872-71.822-19.42-112.51-24.122-66.824 16.016-139.516 58.478-184.246 111.518z" fill="#BCA077" p-id="1507"></path>
    <path d="M747.156 592.5l-45.028-29.562c49.552 31.336 54.356 59.014 32.676 85.64a3465.62 3465.62 0 0 1 17.672 18.536c22.56-28.494 25.926-53.382-5.32-74.614z" fill="#CCBE84" p-id="1508"></path>
    <path d="M69.078 767.972C157.584 920.914 322.582 1024 512 1024c55.156 0 108.186-8.882 157.928-25.058-147.968-70.234-355.624-311.94-600.85-230.97z" fill="#3C9B61" p-id="1509"></path>
    <path d="M204.226 753.372c-35.972 20.136-69.214 45.922-93.878 75.14 2.654 3.37 5.4 6.66 8.134 9.96a512.606 512.606 0 0 0 19.952 22.672c2.7 2.894 5.316 5.866 8.082 8.698 4.382 4.48 8.948 8.78 13.49 13.096 2.546 2.424 5.062 4.882 7.658 7.252a511.144 511.144 0 0 0 14.94 13.038 528.26 528.26 0 0 0 6.8 5.664 517.016 517.016 0 0 0 16.85 13.2c1.516 1.136 3.066 2.232 4.594 3.352 21.084 15.398 43.34 29.292 66.698 41.386 1.51-66.376 32.23-117.602 75.836-168.186-47.428-22.958-97.218-39.962-149.156-45.272z" fill="#AD9172" p-id="1510"></path>
</svg>